# xmcd
#
# Track frame offsets: 
#        150
#        13159
#        26127
#        40386
#        52433
#        66117
#        79784
#        96032
#        109944
#        123423
#        140780
#        155860
#        169730
#        185202
#        198163
#        211602
#        222955
#        239322
#        255453
#        269758
#
# Disc length: 3780 seconds
#
# Revision: 0
# Processed by: cddbd v1.5.2PL0 Copyright (c) Steve Scherf et al.
# Submitted via: ExactAudioCopy v1.0b3
#
DISCID=370ec214
DTITLE=Bata Illic - Die Singles 1967-1980 CD2
DYEAR=2012
DGENRE=Schlager
TTITLE0=Mädchen, wenn du einsam bist
TTITLE1=Jeder Abend ist ein Abschied
TTITLE2=Michaela
TTITLE3=Ich hab' soviel in deinen Augen geseh'n
TTITLE4=So lange ich lebe
TTITLE5=Irgendwann sehen wir uns wieder
TTITLE6=Hey Little Girl
TTITLE7=Alles Schöne auf der Erde
TTITLE8=Komm auf das Schiff meiner Träume
TTITLE9=So war ich noch nie verliebt
TTITLE10=Schwarze Madonna
TTITLE11=Blaue Stunden für uns beide
TTITLE12=Auf der Straße der Sehnsucht
TTITLE13=Geh' dem Glück entgegen
TTITLE14=Ein Souvenir von Marie-Antoinette
TTITLE15=Ein Blick zurück
TTITLE16=Du bist eine unter vielen
TTITLE17=Eine Rose für die Liebe
TTITLE18=Ich hab' noch Sand in den Schuhen aus Hawaii
TTITLE19=Träume weiter Lady Blue
EXTD=
EXTT0=
EXTT1=
EXTT2=
EXTT3=
EXTT4=
EXTT5=
EXTT6=
EXTT7=
EXTT8=
EXTT9=
EXTT10=
EXTT11=
EXTT12=
EXTT13=
EXTT14=
EXTT15=
EXTT16=
EXTT17=
EXTT18=
EXTT19=
PLAYORDER=
